<svg id="Layer_1" data-name="Layer 1" xmlns="http://www.w3.org/2000/svg" viewBox="0 0 1024 1024"><defs><style>.cls-1{fill:#104d5b;}.cls-2{fill:#08424c;}.cls-3{fill:#c9cac4;}.cls-4{fill:#b3b4ad;}.cls-5{fill:#d7d8d3;}.cls-6{fill:#16616d;}.cls-7{fill:#846542;}.cls-8{fill:#e7b2c8;}.cls-9{fill:#97794d;}.cls-10{fill:#b59e7e;}.cls-11{fill:#876945;}.cls-12{fill:#dca5bf;}.cls-13{fill:#1d1e1c;}.cls-14{fill:#fff;}.cls-15{fill:#724712;}.cls-16{fill:#0b4751;}.cls-17{fill:#07383d;}.cls-18{fill:#7b5a3c;}</style></defs><path class="cls-1" d="M455.11,279.24V625q-11.42,5.41-22.84,10.8L73.33,401.21Z"/><path class="cls-2" d="M928.59,401.21Q691.85,513.1,455.11,625V279.24Z"/><path class="cls-1" d="M994.65,248.94,519.8,131.18,455.11,279.24l473.46,122Q961.63,325.07,994.65,248.94Z"/><path class="cls-3" d="M917.72,188.12c-.77-1.21-3.75-6.19-2.27-12.12a12.33,12.33,0,0,1,2.35-4.93c4.28-5.3,12.55-5.61,17.36-5.78l.85,0a30.13,30.13,0,0,1,6.59.59c14.25,2.91,47,14.48,68.95,35.85,3.46,3.37,7.9,8.2,9.29,15.43,0,0,0,.09,0,.13a21.75,21.75,0,0,1-2.49,14.36L814.5,605.41"/><path class="cls-4" d="M965.46,238.48a141.65,141.65,0,0,0,28.68-3.29c12-2.63,18.16-4,19.35-8,3-10.15-21.43-26.51-26.4-29.83a112.77,112.77,0,0,0-24.48-12.33l-32,58.67,0,.06a53,53,0,0,1,10.6-4.28A54.22,54.22,0,0,1,965.46,238.48Z"/><path class="cls-5" d="M1013.35,227.74a88.6,88.6,0,0,1-97.84-53.37l-3.92,7.07Q808.86,366.32,706.13,551.21l65.72,35.84L810,607.87Z"/><path class="cls-5" d="M917.8,171.07a22.13,22.13,0,0,0-.15,10.8l-9.88,6.43c1.07-2.05,2-3.74,2.64-5,3.09-5.76,4.16-7.52,5.1-9S917.27,171.78,917.8,171.07Z"/><path class="cls-6" d="M417.4,136.93,32.83,258.81l40.5,142.4,381.78-122-20.06-75.74C434.19,200.29,418.26,140.18,417.4,136.93Z"/><path class="cls-3" d="M17.82,141.64A22.18,22.18,0,0,1,5.55,131,22.57,22.57,0,0,1,3,123.52c-1.4-9.62,4.56-17.7,8-22.4.31-.42.62-.81.62-.81a31,31,0,0,1,5.47-5.56C30.38,84.47,65.11,66,100.24,68c5.54.32,13.09,1.27,20.44,7.61l.13.11c5,4.33,8.63,10.65,10.65,17.53L304,679.87"/><path class="cls-4" d="M97.63,150.13a164.43,164.43,0,0,0,18.7-30.39c6.71-14,10.21-21.21,7.62-26.57-6.57-13.58-39.23-7.94-45.86-6.79a99.1,99.1,0,0,0-29.17,9.93L76,188.38l0,.1A74.33,74.33,0,0,1,80.29,174,59.65,59.65,0,0,1,97.63,150.13Z"/><path class="cls-5" d="M124.29,93.84c-4.2,8-19.76,35.31-52,44.82s-60.25-5-68.11-9.49l3.21,11.15Q91.32,432.25,175.24,724.19l80.68-23.73,46.85-13.78Z"/><path class="cls-5" d="M3,123.52a41.29,41.29,0,0,0,2.31,3.91,34.37,34.37,0,0,0,7,7.66q-.91,8-1.82,16.07c-1-3.17-1.78-5.81-2.36-7.73-2.69-9-3.42-11.86-4-14.26S3.24,124.78,3,123.52Z"/><path class="cls-3" d="M222.18,163.9a23.38,23.38,0,0,0-1.61-23.34c-5.56-8-15.44-9.79-21.18-10.84-.51-.1-1-.17-1-.17a31,31,0,0,0-7.79-.31c-16.7,1.58-54.69,11.87-78.91,37.4-3.81,4-8.67,9.88-9.69,19.53,0,.06,0,.12,0,.17-.66,6.56,1,13.67,4.23,20.07L382,752.17"/><path class="cls-4" d="M169.81,224.73a165.4,165.4,0,0,1-34.44-9.36c-14.46-5.61-22-8.47-23.74-14.16-4.5-14.4,23.16-32.63,28.78-36.34a99.26,99.26,0,0,1,28.06-12.72l43.29,85.66,0,.09a74.6,74.6,0,0,0-13-7.65A59.73,59.73,0,0,0,169.81,224.73Z"/><path class="cls-5" d="M111.84,201.93c8.55,3,38.58,12.22,68.6-2.92s40.48-44.92,43.15-53.54l5.3,10.33q138.64,270.27,277.3,540.54l-75.06,37.92-43.59,22Z"/><path class="cls-5" d="M220.57,140.56a38,38,0,0,1,1,4.43,34.57,34.57,0,0,1,.14,10.37L234,165.82c-1.45-3-2.68-5.45-3.57-7.24-4.19-8.4-5.63-11-6.87-13.11S221.26,141.63,220.57,140.56Z"/><path class="cls-7" d="M678.65,360.9c1.2,5-20.91,15.89-41,21.26a140.71,140.71,0,0,1-52,3.75,126.89,126.89,0,0,1-7-11.63c-2.59-4.86-3.38-7.11-5.78-11.43a93.33,93.33,0,0,0-7.76-11.7,398.18,398.18,0,0,0,67.46,7.38C660.19,359.17,677.64,356.69,678.65,360.9Z"/><path class="cls-8" d="M635.77,501.85c-3.42,4.18-7,8.24-10.56,12.29s-7.31,8-11.09,11.85-7.65,7.68-11.62,11.39-8,7.31-12.24,10.81a207.68,207.68,0,0,1-26.77,19.17c-2.37,1.44-4.81,2.77-7.27,4.09l-3.75,1.88c-1.25.63-2.55,1.17-3.82,1.76a106,106,0,0,1-16,5.69,77.34,77.34,0,0,1-17.27,2.53,62.76,62.76,0,0,1-17.77-2,52.84,52.84,0,0,1-16.65-7.5,64.2,64.2,0,0,1-13.29-12.19,95,95,0,0,1-9.76-14.39c-2.78-5-5.24-10-7.47-15.11-4.44-10.17-8.1-20.41-11.86-30.46s-7.4-20-11.67-29.55a165.53,165.53,0,0,0-14.77-27.13,98.65,98.65,0,0,0-20.42-22.06,86.43,86.43,0,0,0-12.6-8.16,91.43,91.43,0,0,0-13.87-6A113,113,0,0,0,335,403.15a167.22,167.22,0,0,0-31.38,1.6,261.14,261.14,0,0,0-31.24,6.52c-5.17,1.39-10.31,2.93-15.43,4.58s-10.22,3.37-15.32,5.15c4.75-2.57,9.61-4.93,14.51-7.24s9.9-4.39,14.95-6.39a222.11,222.11,0,0,1,31.21-9.79,160.73,160.73,0,0,1,32.86-4.17,122.81,122.81,0,0,1,16.79.85,105,105,0,0,1,16.67,3.29,98.9,98.9,0,0,1,30.87,14.87,107.56,107.56,0,0,1,24.06,24.41A173.62,173.62,0,0,1,440.21,466c4.6,10.09,8.47,20.33,12.23,30.45s7.29,20.19,11.38,29.8,8.68,18.8,14.69,26.43,13.54,13.35,22.6,16,19,2.79,28.84.74a117.67,117.67,0,0,0,28.86-10.6c4.67-2.36,9.25-5,13.75-7.72s9-5.67,13.3-8.72c2.2-1.5,4.34-3.09,6.51-4.64s4.28-3.18,6.4-4.82c4.26-3.23,8.41-6.61,12.58-10s8.23-6.9,12.3-10.43S631.73,505.43,635.77,501.85Z"/><path class="cls-9" d="M669.29,561.69c-12.27,22.27-81.3,37-116,5-32.89-30.34-24.31-89.78-23.83-92.79,1.69-10.5,10.17-53.26,9.64-72.73-.26-9.41-1.37-18.72-1.37-18.72-.71-6-1.6-11.25-2.41-15.39a20.23,20.23,0,0,1,11.87,2.29c11.06,6.41,12.64,24.67,12.68,24.66s-.36-1.78-2.43-9.13a330.74,330.74,0,0,1,7.71-100.11,29.69,29.69,0,0,0,.61,10.93,30.72,30.72,0,0,0,6.11,11.91c13.29,16.51,60.16,43.08,66.59,61,2.8,7.8,1.59,11.42,6.46,24.42a160.69,160.69,0,0,0,12.29,25.59,54.08,54.08,0,0,1,8,25.38,58.1,58.1,0,0,1-1,15.34c-5.64,34.26-8.46,51.39-1.43,64.22,4.25,7.76,9.19,9.55,10.58,18.23A33.88,33.88,0,0,1,669.29,561.69Z"/><path class="cls-10" d="M630.13,537.67C602,508.4,603.7,470.24,604.18,463a35.12,35.12,0,0,1,1.08-9.82,35.68,35.68,0,0,1,9-15.65c7.15-7.87,20.06-25.6,38.14-51.61a314.86,314.86,0,0,1,24.75,83.92c8.16,55.67-3.64,82.88-6.82,89.73-.42.91-.78,1.65-1,2.14A92.4,92.4,0,0,1,630.13,537.67Z"/><ellipse class="cls-11" cx="497.98" cy="257.69" rx="49.65" ry="61.55" transform="translate(-26.5 455.96) rotate(-48.07)"/><path class="cls-9" d="M638.17,283.16c-7.35,17.82-36.12,38.18-46.75,48.28-14.39,13.66-28.87,39.18-27,91.35l-27.22,3.36a181.91,181.91,0,0,0,.5-43.71,185,185,0,0,0-21.7-68.6,100.38,100.38,0,0,0-13.3-55.42c17.78-16.16,34.33-20.64,43.11-22.16,15.18-2.63,29.52-.27,35.59.73,16.48,2.71,24.36,7.44,41,7.16a87.08,87.08,0,0,0,18.23-2.25l2.79,3.48c.19,3.38.38,6.75.58,10.13A80.24,80.24,0,0,1,638.17,283.16Z"/><rect class="cls-12" x="633.74" y="241.26" width="10.45" height="8.01" rx="4.01" transform="translate(-26.36 405.81) rotate(-34.57)"/><circle class="cls-13" cx="566.23" cy="262.4" r="5.3"/><circle class="cls-14" cx="569.94" cy="262.91" r="0.9"/><path class="cls-14" d="M591.91,269.15a58,58,0,0,0-8.22,6.69,48.48,48.48,0,0,0-11.35,17.51,56.07,56.07,0,0,0-2.73,10.23A36.25,36.25,0,0,1,571.25,293a39.4,39.4,0,0,1,4.57-9.8A40.31,40.31,0,0,1,582.9,275,36.87,36.87,0,0,1,591.91,269.15Z"/><path class="cls-14" d="M594.05,270.36a37,37,0,0,0-4.43,5.8,28.63,28.63,0,0,0-2.94,6.54,27.51,27.51,0,0,0-1.23,7.05,35.2,35.2,0,0,0,.45,7.29,21.74,21.74,0,0,1-.64-14.78,26.11,26.11,0,0,1,1.41-3.52,24.66,24.66,0,0,1,2-3.22A21,21,0,0,1,594.05,270.36Z"/><path class="cls-14" d="M597,271.21a26.11,26.11,0,0,0-2.86,6.65,21.55,21.55,0,0,0-.68,7.05,23.41,23.41,0,0,0,1.65,6.9,31.52,31.52,0,0,0,3.55,6.34,19,19,0,0,1-4.6-5.86A19.51,19.51,0,0,1,592,285a18.5,18.5,0,0,1,1.06-7.5A17.2,17.2,0,0,1,597,271.21Z"/><path class="cls-10" d="M572.58,365.59c-4.93-7.41-9.21-12.35-9.05-20.18,0-1.82.41-8.54,8.75-19.09A76.5,76.5,0,0,1,595.33,307c11.25-6.33,27-16.75,46.38-34.7-3.37,12.27-8.47,20.21-12.51,25.2-2.2,2.7-3.06,3.28-9.12,10-9.42,10.41-14.13,15.61-14.7,17.7-3.08,11.3,19.55,17.65,36.71,42,17,24.1,20.48,54.3,23.13,76.81.73,6.26,1.08,11.51,1.26,15.2L604.18,463a153.28,153.28,0,0,0-2-19.42,155.85,155.85,0,0,0-6.57-25.31C588.06,395.81,583.27,381.64,572.58,365.59Z"/><path class="cls-15" d="M641.51,271.44a8.62,8.62,0,0,1-3.84,1.7,10,10,0,0,1-4.29-.13,9.92,9.92,0,0,1-3.84-1.95A8.37,8.37,0,0,1,627,267.7a24.07,24.07,0,0,0,3.29,2.22,14.39,14.39,0,0,0,3.49,1.37A18.39,18.39,0,0,0,641.51,271.44Z"/><path class="cls-3" d="M497.38,368.2a20,20,0,0,0,10.68-10.63,18.12,18.12,0,0,0,1.5-6.85c.09-8.72-6.88-15.4-10.94-19.3l-.72-.67a31.77,31.77,0,0,0-6.15-4.47c-14.49-8-51.3-21.47-85.73-16.55-5.43.77-12.77,2.28-19.17,8.59l-.12.11A30.73,30.73,0,0,0,378.57,335L287.14,873.94"/><path class="cls-4" d="M419.66,382.82a160.85,160.85,0,0,1-22.57-25.48c-8.51-11.9-12.95-18-11.11-23,4.67-12.71,37.69-10.55,44.4-10.11a110.67,110.67,0,0,1,30.15,6.29l-14.35,84.59v.08A66.91,66.91,0,0,0,440,402.6,59.52,59.52,0,0,0,419.66,382.82Z"/><path class="cls-5" d="M385.74,334.92C391,341.7,410,364.7,443.17,370.34s58.85-9.81,66-14.48c-.56,3.41-1.11,6.82-1.67,10.24q-43.58,268-87.16,536.05l-82.92-14.07-48.15-8.17Q337.52,607.42,385.74,334.92Z"/><path class="cls-5" d="M509.56,350.72a30.2,30.2,0,0,1-1.75,3.69,29.79,29.79,0,0,1-5.88,7.45q2,7.09,4,14.18c.53-2.91,1-5.34,1.28-7.1,1.45-8.27,1.78-10.89,2-13.08S509.51,351.85,509.56,350.72Z"/><path class="cls-6" d="M501,956.16,73.33,831.22v-430L501,523.21Z"/><path class="cls-3" d="M676.89,204.43c-1.3-.84-6.5-4.39-7.74-10.9a13.39,13.39,0,0,1,.07-5.93c1.8-7.17,9.81-11.23,14.47-13.59l.82-.41a32.81,32.81,0,0,1,6.76-2.41c15.36-3.62,52.89-7.13,84.22,3.94,4.94,1.75,11.5,4.49,16.16,11l.09.12a23.65,23.65,0,0,1,4.08,15.28L765.07,662.36"/><path class="cls-4" d="M746.82,232.31A153.42,153.42,0,0,0,773.57,216c10.58-8,16.08-12.15,15.44-16.64C787.37,188,755.85,183,749.44,182a121.67,121.67,0,0,0-29.72-1l-4.83,72.34v.07a56.53,56.53,0,0,1,8.5-9A58.83,58.83,0,0,1,746.82,232.31Z"/><path class="cls-5" d="M789.1,199.94a96.1,96.1,0,0,1-120.63-8l-.66,8.74q-17.05,228.81-34.13,457.64l81,5.4,47,3.14Q775.44,433.39,789.1,199.94Z"/><path class="cls-5" d="M669.22,187.6a23.21,23.21,0,0,0,.85,3.38A24.19,24.19,0,0,0,674,198.3l-6.81,10.83c.13-2.5.24-4.58.33-6.09.43-7.08.69-9.3,1-11.14S669,188.54,669.22,187.6Z"/><path class="cls-1" d="M501,956.16,928.59,831.22v-430L501,523.21Z"/><path class="cls-16" d="M10.17,552.47l427.62,122Q469.4,598.84,501,523.21l-427.62-122Q41.74,476.84,10.17,552.47Z"/><path class="cls-6" d="M991.75,552.47l-427.62,122Q532.52,598.84,501,523.21l427.62-122Q960.19,476.84,991.75,552.47Z"/><path class="cls-9" d="M694.23,444c-2,5-37.3-3.53-66.18-15a292.59,292.59,0,0,1-67.65-38,107.19,107.19,0,0,1-.61-15,134.55,134.55,0,0,1,.79-13.91A108.53,108.53,0,0,1,562.53,351C580,365,605.6,384.43,638.24,405.67,673.74,428.76,695.89,439.87,694.23,444Z"/><path class="cls-9" d="M495,237.41c-2.19-.22-38.33-3.17-54.89,23.46-9,14.52-7.18,29.71-6.48,34.1,3.53,21.84,21,37.49,38.82,43.58,28.06,9.61,51.91-6.24,54.58-8.08-.13-11.83.09-24.39.81-37.61.76-13.88,2-27,3.5-39.25C525.88,248.88,513.23,239.27,495,237.41Z"/><path class="cls-8" d="M521.07,270.27a48.54,48.54,0,0,0,0,40c-20.81,11-42.64,5.92-50.3-6.83-4.81-8-4.94-20.53,1.6-29.19,7.57-10,20.52-10.25,26.07-10.24A45.76,45.76,0,0,1,521.07,270.27Z"/><path class="cls-17" d="M525.56,932.08a4.37,4.37,0,0,1-1.68-2.32h0a7.78,7.78,0,0,1,.3-4.77h0a11.84,11.84,0,0,1,2.47-4.17h0a5.58,5.58,0,0,1,2.24-1.54h0a4.1,4.1,0,0,1,.48-.1h0a4.8,4.8,0,0,1,3.18.54h0l.44.29h0c-.17-.85-.39-1.91-.62-3h0c-.55-2.59-1.18-5.44-1.45-6.29h0c0-.07,0-.12,0-.15h0a6.49,6.49,0,0,1-.65-1.33h0a1.69,1.69,0,0,1-.06-.9h0a1,1,0,0,1,.74-.78h0a2.19,2.19,0,0,1,2.74,1.44h0a2.28,2.28,0,0,1,.1.74h0v0h0a.34.34,0,0,0,0,.09h0a2.86,2.86,0,0,0,0,.33h0c0,.27.1.65.19,1.1h0c.16.9.4,2.1.67,3.4h0c.51,2.39,1.14,5.16,1.69,7.2h0a2.63,2.63,0,0,1,.79.11h0a1.38,1.38,0,0,1,.71.56h0a2.45,2.45,0,0,1,.27.57h0a1.38,1.38,0,0,1,0,.92h0a1.54,1.54,0,0,1-.46.63h0c-.22.2-.45.35-.67.52h0a10.64,10.64,0,0,1,.56,1.35h0a4.49,4.49,0,0,1,.17.81h0a1.57,1.57,0,0,1-.17.89h0a1.05,1.05,0,0,1-.6.47h0l-.14,0h0a2.24,2.24,0,0,1-1.16,0h0a1.69,1.69,0,0,1-.8-.58h0l-.21-.33h0c-.35.42-.84,1-1.41,1.53h0a12.24,12.24,0,0,1-4.54,3.14h0l0,0h0a3.45,3.45,0,0,1-3.09-.39Zm1.73-7.13a6.72,6.72,0,0,0-.61,4h0a.94.94,0,0,0,.42.59h0a1.07,1.07,0,0,0,.92,0h0a7.31,7.31,0,0,0,2.59-1.93h0c.86-.87,1.74-1.92,2.59-2.89h0c-.11-.2-.27-.47-.46-.76h0a6.7,6.7,0,0,0-1.59-1.79h0a1.62,1.62,0,0,0-1.1-.35h0l-.25.05h0a5.38,5.38,0,0,0-2.47,3Zm14.54.24a12.4,12.4,0,0,1-2.69-3.26h0a32.63,32.63,0,0,1-2.69-5.74h0c0-.08-.05-.16-.08-.23h0a1.69,1.69,0,0,1,0-1.13h0a1.18,1.18,0,0,1,.76-.71h0l.24-.06h0a1.71,1.71,0,0,1,1.44.42h0a2,2,0,0,1,.5.84h0c.07.25.14.49.22.73h0a26.76,26.76,0,0,0,1.84,4.58h0a6.54,6.54,0,0,0,1.79,2.29h0c.35.21.54.23.72.17h0a.91.91,0,0,0,.37-.23h0a3.15,3.15,0,0,0,.82-1.82h0a9.49,9.49,0,0,0,0-2.55h0a22,22,0,0,0-.86-3.72h0l0-.1h0a1.94,1.94,0,0,1-.08-1h0a1.42,1.42,0,0,1,1-1h0l.09,0h0a1.37,1.37,0,0,1,1,.09h0a2,2,0,0,1,.6.49h0a3,3,0,0,1,.41.7h0l0,.06V914c.07.36.43,1.86.68,3.62h0a16,16,0,0,1,0,5.57h0a3.79,3.79,0,0,1-1.92,2.69h0a2.92,2.92,0,0,1-.49.19h0a3.93,3.93,0,0,1-3.63-.9Zm12.63-.92-.24.06h0a1.7,1.7,0,0,1-1.32-.3h0a1.52,1.52,0,0,1-.44-.53h-.17a1.46,1.46,0,0,1-1-.39h0l0,0,0,0a.58.58,0,0,1-.1-.16h0a.59.59,0,0,1,0-.08h0c0-.06,0-.12-.07-.19h0c-.06-.16-.14-.36-.22-.61h0c-.18-.51-.41-1.2-.66-2h0a57.41,57.41,0,0,1-1.48-5.61h0a1.85,1.85,0,0,1-.72-.82h0v0a.3.3,0,0,1,0-.1h0a1.48,1.48,0,0,1,.12-1.06h0a2.82,2.82,0,0,1,.36-.54h0c0-.09,0-.19,0-.31h0c0-.37-.08-.9-.15-1.49h0a23.5,23.5,0,0,0-.74-3.88h0l-.06-.18h0a3.68,3.68,0,0,0-.28-.48h0a4.14,4.14,0,0,1-.44-.87h0a1.41,1.41,0,0,1,0-1h0a1.51,1.51,0,0,1,.81-.76h0l.12,0h0a1.3,1.3,0,0,1,.9.07h0a2.62,2.62,0,0,1,.71.5h0a4.59,4.59,0,0,1,1.07,1.78h0l.06.2h0a11,11,0,0,1,.45,2.45h0c.06.68.12,1.45.25,2.52h0a11.75,11.75,0,0,1,3.43-.53h0a5.63,5.63,0,0,1,4.32,1.69h0a2.46,2.46,0,0,1,.54.94h0a5.17,5.17,0,0,1-.07,2.64h0a17,17,0,0,1-1.05,2.85h0a45.45,45.45,0,0,1-2.5,4.52h0c-.14.24-.26.43-.27.46h0a2,2,0,0,0-.16.41h0a1.52,1.52,0,0,1-.28.57h0a1.13,1.13,0,0,1-.48.3h0Zm-2.23-6.86a33.12,33.12,0,0,0,1.21,3.28h0c.21-.31.46-.68.72-1.09h0a20,20,0,0,0,2-4h0a3.62,3.62,0,0,0,.24-2h0a1,1,0,0,0-.19-.33h0a2.46,2.46,0,0,0-1.67-.47h0a9.17,9.17,0,0,0-2.64.41h0l-.53.19h0c0,.21.06.47.1.77h0a24.3,24.3,0,0,0,.54,2.67h0q.09.32.18.6Zm12.64,4.45a1.91,1.91,0,0,1-1.13-.05h0a1.22,1.22,0,0,1-.66-.56h0a4.85,4.85,0,0,1-.39-.76h0a23.85,23.85,0,0,1-.82-2.3h0c-1.12-3.58-2.44-9.23-3.2-12.52h0c-.39-1.67-.75-3.09-1-4.2h0a13.16,13.16,0,0,1-.42-2.45h0a1.22,1.22,0,0,1,.13-.57h0v0h0a1.64,1.64,0,0,1,.88-.75h0a1.93,1.93,0,0,1,1.48.26h0a1.57,1.57,0,0,1,.51.46h0a2.73,2.73,0,0,1,.3.67h0a29.49,29.49,0,0,1,.59,2.94h0c.26,1.48.64,3.59,1.26,6.63h0c.49,2.38,1.1,4.76,1.74,6.8h0a35.73,35.73,0,0,0,1.23,3.42h0v0h0l.16.47h0a4.5,4.5,0,0,1,.19.89h0a1.76,1.76,0,0,1-.16,1h0a1.17,1.17,0,0,1-.67.56h0Zm4-3.39.09-.66-.1.66a4.47,4.47,0,0,1-2.27-1.27h0a6.64,6.64,0,0,1-1.68-2.75h0a6.48,6.48,0,0,1-.26-2.56h0A14.37,14.37,0,0,1,565.8,907h0a4.5,4.5,0,0,1,2.25-2.35h0l.24-.09h0a4.47,4.47,0,0,1,2.91.19h0a6,6,0,0,1,3.07,3h0a8.17,8.17,0,0,1,.47,1.17h0A7.64,7.64,0,0,1,574,915h0a7.21,7.21,0,0,1-3.79,3.38h0a3,3,0,0,1-1.35.13Zm.56-11.08a1.38,1.38,0,0,0-.18.13h0a3.73,3.73,0,0,0-.64.76h0a8.15,8.15,0,0,0-1,4.4h0a2.78,2.78,0,0,0,.14.87h0a3.78,3.78,0,0,0,.77,1.39h0a1.44,1.44,0,0,0,1,.56h0a.85.85,0,0,0,.25,0h0a3.41,3.41,0,0,0,1.48-1.34h0a5.19,5.19,0,0,0,.84-1.92h0v0a6.25,6.25,0,0,0-.09-2.81h0a3.51,3.51,0,0,0-.84-1.43h0a2,2,0,0,0-.74-.62h0a1.33,1.33,0,0,0-.59-.09h0l-.29.14h0l0,0Zm-.21-.1-.09-.5.09.5Zm-56.57,22.07a10.8,10.8,0,0,1,1.2-2.77,12.62,12.62,0,0,1,4.38-4l.92-.19a4,4,0,0,1,2.29.32,2.38,2.38,0,0,1,1.17,2.16,4.06,4.06,0,0,1-1.14,3.1,9.32,9.32,0,0,1-3,2.27c-1.18.56-1.79,1-1.84,1.28s.21.58.76.83a7.66,7.66,0,0,0,3.45.09,14.4,14.4,0,0,0,4.21-1,15.52,15.52,0,0,0,2.53-1.35c.63-.44,1.61.06,2-.11s.72,0,1.05.45c-.53,1.12-1.66,1.17-2.41,1.78a15.15,15.15,0,0,1-2.91,1.79,19,19,0,0,1-4.46,1.45l-1.09.18a13.08,13.08,0,0,1-4.1-.13,4.66,4.66,0,0,1-1.79-.93,4.48,4.48,0,0,1-1.15-1.93A8,8,0,0,1,512.64,929.36Zm3.12.06a10.08,10.08,0,0,0,3-2.08c.47-.58.63-1.06.49-1.45s-.61-.3-1.37.27a4.76,4.76,0,0,0-1.49,1.6A14.76,14.76,0,0,0,515.76,929.42Z"/><path class="cls-17" d="M574.88,928.35a13.35,13.35,0,0,1-7.39-1.14h0a1.11,1.11,0,0,1-.58-.63h0a1.06,1.06,0,0,1,0-.19h0a1.46,1.46,0,0,1,.17-.94h0a1.61,1.61,0,0,1,.72-.67h0l.16-.07h0a1.27,1.27,0,0,1,.93.09h0a8.54,8.54,0,0,0,2.14.62h0a14.55,14.55,0,0,0,2.32.2h0a15.07,15.07,0,0,0,3.42-.39h0a9.55,9.55,0,0,0,1.08-.3h0a12.68,12.68,0,0,0,2.12-.89h0a13.62,13.62,0,0,0,2.52-1.72h0a6.56,6.56,0,0,0,1.87-4.07h0a17.68,17.68,0,0,0-.79-5.57h0a8.83,8.83,0,0,1-.35.9h0a6.75,6.75,0,0,1-.87,1.43h0a4.92,4.92,0,0,1-1.6,1.29h0a2,2,0,0,1-.31.13h0a2,2,0,0,1-.91.08h0a3.11,3.11,0,0,1-1.09-.36h0a4.59,4.59,0,0,1-2.09-2.51h0c0-.11-.08-.21-.11-.31h0a7.82,7.82,0,0,1-.32-3.18h0a19.8,19.8,0,0,1,.64-3.51h0c.08-.27.24-.72.48-1.37h0a14.44,14.44,0,0,1,1-2h0a8.72,8.72,0,0,1,1.45-1.84h0a3,3,0,0,1,1.2-.75h0a2.6,2.6,0,0,1,.74-.12h0a1.07,1.07,0,0,1,.45.06h0a.48.48,0,0,1,.29.3h0a.24.24,0,0,1,0,.08h0a1.24,1.24,0,0,1-.14.73h0l.11,0h0a2.63,2.63,0,0,1,.44-.09h0a1.34,1.34,0,0,1,1.63.84h0l0,.11h0c.44,1.82.89,3.63,1.33,5.44h0c.45,1.83.8,3.66,1.14,5.49h0a20.57,20.57,0,0,1,.45,4.77h0a9.29,9.29,0,0,1-.33,2.18h0a8.43,8.43,0,0,1-1.77,3.11h0a12.74,12.74,0,0,1-2.85,2.41h0a16.17,16.17,0,0,1-3.55,1.64h0a18.46,18.46,0,0,1-3.75.78Zm6.06-24.9a6.3,6.3,0,0,0-.39.78h0l-.38.94h0a9.26,9.26,0,0,0-.55,1.81h0c-.1.59-.2,1.2-.29,1.81h0a8.24,8.24,0,0,0,0,3.63h0v0h0a3.55,3.55,0,0,0,.4.9h0c.13.17.22.22.27.22h0l0,0h0l.12-.18h0a5.17,5.17,0,0,0,.3-.77h0a17.41,17.41,0,0,0,.6-3.17h0a26.52,26.52,0,0,0,.14-3.21h0c0-1.05,0-2.1,0-3.15h0c-.1.14-.18.28-.25.4Z"/><path class="cls-17" d="M590.46,913a6.7,6.7,0,0,1-2.75-1.32h0a1,1,0,0,1-.36-.49h0a1.2,1.2,0,0,1,0-.42h0a1.86,1.86,0,0,1,.32-.95h0a1.82,1.82,0,0,1,.75-.63h0l.11,0h0a1,1,0,0,1,.88.17h0a5.05,5.05,0,0,0,1.65.79h0a1.11,1.11,0,0,0,.6,0h0a.85.85,0,0,0,.52-.52h0v-.06h0a1,1,0,0,1,0-.15h0a2.13,2.13,0,0,0-.1-.66h0v0h0a3.06,3.06,0,0,0-.53-.91h0a3.42,3.42,0,0,0-1.31-.88h0a8.64,8.64,0,0,0-1-.36h0a3.6,3.6,0,0,1-1.05-.49h0a3.23,3.23,0,0,1-1.33-1.73h0a4.14,4.14,0,0,1-.14-.65h0a4.26,4.26,0,0,1,.78-3.18h0a7.51,7.51,0,0,1,2.36-2.22h0l.21-.09h0a.87.87,0,0,1,.72.08h0a1,1,0,0,1,.46.56h0a1.46,1.46,0,0,1,0,.2h0a1.76,1.76,0,0,1-.66,1.59h0a5.33,5.33,0,0,0-.64.71h0a3.49,3.49,0,0,0-.52.94h0a1.56,1.56,0,0,0-.08.87h0l0,.06h0a.9.9,0,0,0,.56.52h0a11.08,11.08,0,0,0,1.14.42h0a4.84,4.84,0,0,1,1.17.56h0a10.73,10.73,0,0,1,1.34,1h0a4.24,4.24,0,0,1,1,1.41h0c.08.18.14.35.2.53h0A5,5,0,0,1,595,910h0a3.51,3.51,0,0,1-1.53,2.4h0a4,4,0,0,1-1.1.56h0a3.4,3.4,0,0,1-1.9.06Zm1.88-3.41-.05-.16.05.16Zm-.1,0-.06,0,.06,0Z"/><path class="cls-17" d="M582,895.48c.11-.37.24-.73.7-.82a.7.7,0,0,1,.83.54,1.46,1.46,0,0,1-.06.69l-.6,2.13c-.11.37-.24.72-.7.81a.71.71,0,0,1-.84-.53,1.63,1.63,0,0,1,.07-.69Z"/><path class="cls-17" d="M577.82,896.45a1,1,0,0,1,.07-1.07.7.7,0,0,1,1-.08,1.3,1.3,0,0,1,.36.59L580,898A.94.94,0,0,1,580,899a.7.7,0,0,1-1,.08,1.39,1.39,0,0,1-.37-.59Z"/><path class="cls-17" d="M574.79,898.65c-.26-.28-.51-.57-.36-1a.7.7,0,0,1,.88-.46,1.37,1.37,0,0,1,.56.4l1.54,1.6c.27.28.51.57.36,1a.7.7,0,0,1-.88.46,1.68,1.68,0,0,1-.56-.4Z"/><path class="cls-17" d="M575.56,901.4c.38.09.74.21.85.66a.7.7,0,0,1-.49.86,1.38,1.38,0,0,1-.69,0l-2.15-.51c-.38-.1-.74-.21-.85-.67a.71.71,0,0,1,.49-.86,1.54,1.54,0,0,1,.69,0Z"/><path class="cls-17" d="M585.5,896.91c.25-.3.51-.57,1-.46a.7.7,0,0,1,.55.82,1.52,1.52,0,0,1-.34.61l-1.41,1.7c-.25.29-.51.56-1,.46a.71.71,0,0,1-.55-.82,1.52,1.52,0,0,1,.34-.61Z"/><path class="cls-18" d="M558,496.59a20.4,20.4,0,0,0-4.42.78,5,5,0,0,1-3.69-.26c-.53-.32-1.35-1.09-1.23-1.83s1.16-1.19,3.26-2.17c.45-.21.6-.26.84-.38,1.11-.5,3.91-1.78,4.5-4.21a4.25,4.25,0,0,0-1.19-4.11,4.09,4.09,0,0,0-2.66-.9,6.12,6.12,0,0,0-2.61.69,12.11,12.11,0,0,0-4.25,3,9.42,9.42,0,0,0-2.28,3.82,8.54,8.54,0,0,0-.22,3.91,7.16,7.16,0,0,0,1.51,3.37,7.3,7.3,0,0,0,2.37,1.86,9.36,9.36,0,0,0,3.37,1,10.48,10.48,0,0,0,5.92-1.27c1.76-.85,1.94-1.43,2-1.72a1.62,1.62,0,0,0-.71-1.47A1.24,1.24,0,0,0,558,496.59Zm-10.19-4.8c-.46-.55.95-2.93,2.95-3.94.62-.31,1.85-.81,2.21-.39s-.5,1.82-.57,1.92a5,5,0,0,1-1.57,1.42C550.23,491.19,548.26,492.27,547.84,491.79Z"/><rect class="cls-18" x="549.02" y="474.11" width="2.47" height="7.17" rx="1.21" transform="matrix(0.98, -0.17, 0.17, 0.98, -74.77, 103.11)"/><rect class="cls-18" x="554.67" y="474.31" width="2.47" height="7.17" rx="1.21" transform="translate(196.67 -161.14) rotate(19.97)"/><rect class="cls-18" x="544.07" y="476.19" width="2.47" height="7.17" rx="1.21" transform="translate(1271.43 496.44) rotate(139.97)"/><rect class="cls-18" x="540.96" y="480.49" width="2.47" height="7.17" rx="1.21" transform="translate(1194.25 162.95) rotate(112.02)"/><rect class="cls-18" x="559.06" y="477.29" width="2.47" height="7.17" rx="1.21" transform="translate(541.76 -257.25) rotate(47.92)"/></svg>