<?xml version="1.0" encoding="UTF-8"?>
<svg width="24px" height="24px" viewBox="0 0 24 24" version="1.1" xmlns="http://www.w3.org/2000/svg" xmlns:xlink="http://www.w3.org/1999/xlink">
    <!-- Generator: Sketch 64 (93537) - https://sketch.com -->
    <title>quickicon</title>
    <desc>Created with Sketch.</desc>
    <defs>
        <polygon id="path-1" points="0.5 0.5005 23.849 0.5005 23.849 23.0383 0.5 23.0383"></polygon>
        <linearGradient x1="0.300462173%" y1="-1.80755088%" x2="132.415481%" y2="154.82633%" id="linearGradient-3">
            <stop stop-color="#2AF4FF" offset="0%"></stop>
            <stop stop-color="#AA6AF7" offset="56.8227407%"></stop>
            <stop stop-color="#FF00F7" offset="100%"></stop>
        </linearGradient>
    </defs>
    <g id="quickicon" stroke="none" stroke-width="1" fill="none" fill-rule="evenodd">
        <mask id="mask-2" fill="white">
            <use xlink:href="#path-1"></use>
        </mask>
        <g id="Clip-2"></g>
        <path d="M21.6365,19.6975 C21.0855,19.6975 20.6365,19.2485 20.6365,18.6975 C20.6365,18.1455 21.0855,17.6975 21.6365,17.6975 C22.1885,17.6975 22.6365,18.1455 22.6365,18.6975 C22.6365,19.2485 22.1885,19.6975 21.6365,19.6975 L21.6365,19.6975 Z M19.9445,17.6405 L16.8925,16.7525 C16.8535,15.8815 16.2605,15.1615 15.4545,14.9285 L15.4255,13.9355 C16.4065,13.8085 17.1665,12.9785 17.1665,11.9625 C17.1665,11.6455 17.0865,11.3495 16.9555,11.0835 L17.3395,10.7165 L20.3935,17.1415 C20.2175,17.2835 20.0645,17.4495 19.9445,17.6405 L19.9445,17.6405 Z M14.9025,17.8415 C14.3505,17.8415 13.9025,17.3925 13.9025,16.8415 C13.9025,16.2895 14.3505,15.8415 14.9025,15.8415 C15.4525,15.8415 15.9025,16.2895 15.9025,16.8415 C15.9025,17.3925 15.4525,17.8415 14.9025,17.8415 L14.9025,17.8415 Z M11.6075,19.1965 C11.3665,19.0945 11.1035,19.0385 10.8255,19.0385 C10.5205,19.0385 10.2355,19.1115 9.9765,19.2335 L8.0285,17.1455 C8.1435,16.8925 8.2125,16.6145 8.2125,16.3185 C8.2125,15.5785 7.8055,14.9395 7.2085,14.5935 L8.2495,11.6875 C8.6345,11.6825 8.9915,11.5685 9.2945,11.3755 L13.1405,15.9135 C12.9925,16.1915 12.9015,16.5045 12.9015,16.8415 C12.9015,16.9345 12.9165,17.0235 12.9295,17.1135 L11.6075,19.1965 Z M10.8255,22.0385 C10.2745,22.0385 9.8255,21.5905 9.8255,21.0385 C9.8255,20.4865 10.2745,20.0385 10.8255,20.0385 C11.3775,20.0385 11.8255,20.4865 11.8255,21.0385 C11.8255,21.5905 11.3775,22.0385 10.8255,22.0385 L10.8255,22.0385 Z M6.2125,17.3185 C5.6605,17.3185 5.2125,16.8695 5.2125,16.3185 C5.2125,15.7665 5.6605,15.3185 6.2125,15.3185 C6.7635,15.3185 7.2125,15.7665 7.2125,16.3185 C7.2125,16.8695 6.7635,17.3185 6.2125,17.3185 L6.2125,17.3185 Z M3.3585,13.8225 C3.5885,13.7125 3.7935,13.5605 3.9655,13.3755 C4.4205,13.7745 4.9185,14.2455 5.2175,14.5935 C5.0025,14.7175 4.8155,14.8795 4.6605,15.0705 C4.2045,14.6765 3.6845,14.1905 3.3585,13.8225 L3.3585,13.8225 Z M1.4995,12.0225 C1.4995,11.4715 1.9485,11.0225 2.4995,11.0225 C3.0515,11.0225 3.4995,11.4715 3.4995,12.0225 C3.4995,12.5745 3.0515,13.0225 2.4995,13.0225 C1.9485,13.0225 1.4995,12.5745 1.4995,12.0225 L1.4995,12.0225 Z M6.5885,10.8305 C6.7655,11.0855 7.0035,11.2895 7.2765,11.4385 L6.2475,14.3105 C5.8555,13.7115 4.9235,12.8775 4.4465,12.4685 C4.4785,12.3245 4.4995,12.1765 4.4995,12.0225 C4.4995,11.9005 4.4855,11.7815 4.4645,11.6655 L6.5885,10.8305 Z M8.2275,8.6895 C8.7795,8.6895 9.2275,9.1375 9.2275,9.6895 C9.2275,10.2405 8.7795,10.6895 8.2275,10.6895 C7.6765,10.6895 7.2275,10.2405 7.2275,9.6895 C7.2275,9.1375 7.6765,8.6895 8.2275,8.6895 L8.2275,8.6895 Z M10.4395,1.5005 C10.9905,1.5005 11.4395,1.9485 11.4395,2.5005 C11.4395,3.0515 10.9905,3.5005 10.4395,3.5005 C9.8875,3.5005 9.4395,3.0515 9.4395,2.5005 C9.4395,1.9485 9.8875,1.5005 10.4395,1.5005 L10.4395,1.5005 Z M16.0685,5.7955 C16.6195,5.7955 17.0685,6.2445 17.0685,6.7955 C17.0685,7.3465 16.6195,7.7955 16.0685,7.7955 C15.5175,7.7955 15.0685,7.3465 15.0685,6.7955 C15.0685,6.2445 15.5175,5.7955 16.0685,5.7955 L16.0685,5.7955 Z M10.1495,4.4705 C9.9465,5.5835 9.6025,7.1285 9.2765,7.9935 C9.0615,7.8605 8.8215,7.7665 8.5625,7.7235 C8.7925,6.5215 9.1565,4.9615 9.4815,4.2455 C9.6855,4.3575 9.9085,4.4355 10.1495,4.4705 L10.1495,4.4705 Z M16.3065,10.3215 C15.9835,10.0965 15.5915,9.9625 15.1665,9.9625 C14.0625,9.9625 13.1665,10.8575 13.1665,11.9625 C13.1665,12.8025 13.6865,13.5185 14.4205,13.8145 L14.4525,14.8955 C14.2235,14.9485 14.0095,15.0405 13.8175,15.1645 L9.9785,10.6365 C10.1325,10.3535 10.2275,10.0335 10.2275,9.6895 C10.2275,9.3695 10.1455,9.0725 10.0125,8.8035 C10.6025,7.6265 11.0875,4.9315 11.1865,4.3535 L11.1855,4.3535 C11.3445,4.2895 11.4905,4.2035 11.6255,4.1025 L14.1995,6.1045 C14.1185,6.3205 14.0685,6.5515 14.0685,6.7955 C14.0685,7.9005 14.9635,8.7955 16.0685,8.7955 C16.1855,8.7955 16.2985,8.7805 16.4105,8.7605 L16.8875,9.7645 L16.3065,10.3215 Z M15.1665,12.9625 C14.6155,12.9625 14.1665,12.5135 14.1665,11.9625 C14.1665,11.4105 14.6155,10.9625 15.1665,10.9625 C15.7185,10.9625 16.1665,11.4105 16.1665,11.9625 C16.1665,12.5135 15.7185,12.9625 15.1665,12.9625 L15.1665,12.9625 Z M19.5325,7.2315 L17.6485,9.0365 L17.3195,8.3445 C17.6055,8.1135 17.8235,7.8095 17.9485,7.4565 L19.4675,7.1325 C19.4895,7.1665 19.5085,7.1985 19.5325,7.2315 L19.5325,7.2315 Z M21.1595,5.0755 C21.7105,5.0755 22.1595,5.5245 22.1595,6.0755 C22.1595,6.6275 21.7105,7.0755 21.1595,7.0755 C20.6085,7.0755 20.1595,6.6275 20.1595,6.0755 C20.1595,5.5245 20.6085,5.0755 21.1595,5.0755 L21.1595,5.0755 Z M22.8495,11.4855 C22.8495,12.0365 22.4005,12.4855 21.8495,12.4855 C21.2975,12.4855 20.8495,12.0365 20.8495,11.4855 C20.8495,10.9335 21.2975,10.4855 21.8495,10.4855 C22.4005,10.4855 22.8495,10.9335 22.8495,11.4855 L22.8495,11.4855 Z M21.3045,16.7305 L18.1005,9.9875 L20.3025,7.8765 C20.4995,7.9695 20.7135,8.0285 20.9395,8.0535 L21.1575,9.6155 C20.3945,9.8975 19.8495,10.6245 19.8495,11.4855 C19.8495,12.4635 20.5515,13.2735 21.4795,13.4475 L21.5905,16.7015 C21.4925,16.7045 21.3985,16.7155 21.3045,16.7305 L21.3045,16.7305 Z M22.6005,16.9555 L22.4785,13.3745 C23.2725,13.1095 23.8495,12.3685 23.8495,11.4855 C23.8495,10.4845 23.1125,9.6625 22.1525,9.5155 L21.9305,7.9215 C22.6525,7.6195 23.1595,6.9065 23.1595,6.0755 C23.1595,4.9705 22.2645,4.0755 21.1595,4.0755 C20.0545,4.0755 19.1595,4.9705 19.1595,6.0755 C19.1595,6.1095 19.1675,6.1405 19.1695,6.1735 L18.0305,6.4155 C17.8525,5.4925 17.0425,4.7955 16.0685,4.7955 C15.5715,4.7955 15.1215,4.9835 14.7725,5.2845 L12.2565,3.3265 C12.3715,3.0735 12.4395,2.7955 12.4395,2.5005 C12.4395,1.3955 11.5445,0.5005 10.4395,0.5005 C9.3345,0.5005 8.4395,1.3955 8.4395,2.5005 C8.4395,2.8775 8.5505,3.2265 8.7315,3.5275 C8.1785,4.4675 7.7035,6.8455 7.5265,7.8225 C6.7685,8.1075 6.2275,8.8325 6.2275,9.6895 C6.2275,9.7585 6.2405,9.8235 6.2475,9.8905 L4.0375,10.7585 C3.6715,10.3125 3.1225,10.0225 2.4995,10.0225 C1.3955,10.0225 0.4995,10.9185 0.4995,12.0225 C0.4995,13.0405 1.2635,13.8715 2.2465,13.9975 C2.6675,14.6795 3.8605,15.7085 4.2415,16.0275 C4.2275,16.1235 4.2125,16.2185 4.2125,16.3185 C4.2125,17.4235 5.1075,18.3185 6.2125,18.3185 C6.6545,18.3185 7.0595,18.1705 7.3905,17.9265 L9.2055,19.8735 C8.9695,20.2025 8.8255,20.6025 8.8255,21.0385 C8.8255,22.1425 9.7215,23.0385 10.8255,23.0385 C11.9305,23.0385 12.8255,22.1425 12.8255,21.0385 C12.8255,20.5755 12.6625,20.1545 12.3985,19.8165 L13.4315,18.1875 C13.7975,18.5865 14.3185,18.8415 14.9025,18.8415 C15.6845,18.8415 16.3545,18.3875 16.6835,17.7325 L19.6475,18.5965 C19.6455,18.6315 19.6365,18.6635 19.6365,18.6975 C19.6365,19.8015 20.5325,20.6975 21.6365,20.6975 C22.7405,20.6975 23.6365,19.8015 23.6365,18.6975 C23.6365,17.9445 23.2155,17.2965 22.6005,16.9555 L22.6005,16.9555 Z" id="Fill-1" fill="url(#linearGradient-3)" fill-rule="nonzero" mask="url(#mask-2)"></path>
    </g>
</svg>